HIERARCHY
ROOT Hips
{
	OFFSET 0.000000 0.000000 0.000000
	CHANNELS 6 Xposition Yposition Zposition Zrotation Yrotation Xrotation 
	JOINT LeftUpLeg_virtual
	{
		OFFSET 0.000000 0.000000 0.000000
		CHANNELS 3 Zrotation Yrotation Xrotation
		JOINT LeftUpLeg
		{
			OFFSET 8.479694 -4.795517 -0.379053
			CHANNELS 3 Zrotation Yrotation Xrotation
			JOINT LeftLeg
			{
				OFFSET 0.485052 -32.551468 0.112863
				CHANNELS 3 Zrotation Yrotation Xrotation
				JOINT LeftFoot
				{
					OFFSET 0.438033 -32.635670 -3.012641
					CHANNELS 3 Zrotation Yrotation Xrotation
					JOINT LeftToeBase
					{
						OFFSET 0.970169 -13.225353 11.864223
						CHANNELS 3 Zrotation Yrotation Xrotation
						End Site
						{
							OFFSET 0.000000 0.000000 0.000000
						}
					}
				}
			}
		}
	}
	JOINT RightUpLeg_virtual
	{
		OFFSET 0.000000 0.000000 0.000000
		CHANNELS 3 Zrotation Yrotation Xrotation
		JOINT RightUpLeg
		{
			OFFSET -8.479694 -4.795517 -0.379053
			CHANNELS 3 Zrotation Yrotation Xrotation
			JOINT RightLeg
			{
				OFFSET -0.484100 -32.551483 0.112903
				CHANNELS 3 Zrotation Yrotation Xrotation
				JOINT RightFoot
				{
					OFFSET -0.438985 -32.635651 -3.012681
					CHANNELS 3 Zrotation Yrotation Xrotation
					JOINT RightToeBase
					{
						OFFSET -0.970169 -13.225354 11.864223
						CHANNELS 3 Zrotation Yrotation Xrotation
						End Site
						{
							OFFSET 0.000000 0.000000 0.000000
						}
					}
				}
			}
		}
	}
	JOINT Spine_virtual
	{
		OFFSET 0.000000 0.000000 0.000000
		CHANNELS 3 Zrotation Yrotation Xrotation
		JOINT Spine
		{
			OFFSET 0.000000 7.722015 1.166203
			CHANNELS 3 Zrotation Yrotation Xrotation
			JOINT Spine1
			{
				OFFSET 0.000000 12.024086 0.248766
				CHANNELS 3 Zrotation Yrotation Xrotation
				JOINT Spine2
				{
					OFFSET -0.000000 11.503036 -0.491240
					CHANNELS 3 Zrotation Yrotation Xrotation
					JOINT Neck_virtual
					{
						OFFSET 0.000000 0.000000 0.000000
						CHANNELS 3 Zrotation Yrotation Xrotation
						JOINT Neck
						{
							OFFSET 0.000000 18.430687 -3.123054
							CHANNELS 3 Zrotation Yrotation Xrotation
							JOINT Head
							{
								OFFSET -0.000000 9.051071 1.034021
								CHANNELS 3 Zrotation Yrotation Xrotation
								End Site
								{
									OFFSET 0.000000 0.000000 0.000000
								}
							}
						}
					}
					JOINT LeftShoulder_virtual
					{
						OFFSET 0.000000 0.000000 0.000000
						CHANNELS 3 Zrotation Yrotation Xrotation
						JOINT LeftShoulder
						{
							OFFSET 6.197824 13.665230 -4.064723
							CHANNELS 3 Zrotation Yrotation Xrotation
							JOINT LeftArm
							{
								OFFSET 7.778132 -0.187073 -1.709282
								CHANNELS 3 Zrotation Yrotation Xrotation
								JOINT LeftForeArm
								{
									OFFSET 21.954697 0.000000 -2.041093
									CHANNELS 3 Zrotation Yrotation Xrotation
									JOINT LeftHand
									{
										OFFSET 22.992908 0.000000 -0.870901
										CHANNELS 3 Zrotation Yrotation Xrotation
										End Site
										{
											OFFSET 0.000000 0.000000 0.000000
										}
									}
								}
							}
						}
					}
					JOINT RightShoulder_virtual
					{
						OFFSET 0.000000 0.000000 0.000000
						CHANNELS 3 Zrotation Yrotation Xrotation
						JOINT RightShoulder
						{
							OFFSET -6.197824 13.665230 -4.064723
							CHANNELS 3 Zrotation Yrotation Xrotation
							JOINT RightArm
							{
								OFFSET -7.778132 -0.187073 -1.709282
								CHANNELS 3 Zrotation Yrotation Xrotation
								JOINT RightForeArm
								{
									OFFSET -21.954697 0.000000 -2.041093
									CHANNELS 3 Zrotation Yrotation Xrotation
									JOINT RightHand
									{
										OFFSET -22.992908 0.000000 -0.870901
										CHANNELS 3 Zrotation Yrotation Xrotation
										End Site
										{
											OFFSET 0.000000 0.000000 0.000000
										}
									}
								}
							}
						}
					}
				}
			}
		}
	}
}
MOTION
Frames: 4
Frame Time: 0.033333
70.478073 79.710686 -83.526352 -179.928643 -20.675910 179.942549 -7.337052 2.226204 30.266887 13.479407 6.372647 -64.594001 3.004385 13.072014 39.645963 -4.737707 -2.676237 -1.404884 0.000000 0.000000 0.000000 0.297114 -3.185603 30.285271 7.753332 -10.926476 -63.916849 1.325551 2.829894 40.610208 4.086718 8.761208 -1.525529 0.000000 0.000000 0.000000 -0.081081 -0.881709 47.134012 -2.637389 0.621166 27.902660 0.191682 -1.459638 6.421603 -0.013674 0.023327 -0.008054 0.927938 -1.392675 7.400329 -2.252583 0.923949 -23.724771 0.000000 0.000000 0.000000 1.397148 -0.086998 2.988166 11.215553 -18.736280 1.769137 -6.673723 -24.441154 -61.389713 -7.427120 -28.703542 2.751980 0.000000 0.000000 0.000000 -2.186762 1.203900 2.367687 24.344182 26.928432 6.426254 3.506220 43.914578 -34.991349 -8.471936 49.498548 -12.799485 0.000000 0.000000 0.000000 
70.181465 79.615433 -83.821930 -179.947194 -20.653722 179.841435 -7.420487 2.999119 31.162564 13.760005 6.004253 -65.379131 2.676399 12.811849 39.841839 -4.208665 -2.582621 -2.034255 0.000000 0.000000 0.000000 -0.077749 -2.583679 31.423440 8.219539 -11.139901 -64.693154 1.291916 2.741399 40.841331 4.086614 8.890780 -2.121874 0.000000 0.000000 0.000000 -0.089909 -0.304769 48.622587 -2.432944 0.734683 28.487776 -0.142517 -1.973695 6.044577 0.019263 0.007173 0.009527 0.547084 -1.987704 6.879031 -1.811726 0.655619 -23.250722 0.000000 0.000000 0.000000 0.997468 -0.627890 2.358471 11.893945 -17.951067 1.309239 -3.697006 -25.359876 -63.822927 -9.597430 -28.570183 1.508036 0.000000 0.000000 0.000000 -2.578594 0.586140 1.804537 25.964430 27.979429 6.968419 1.327091 44.787774 -34.522897 -9.247140 48.822582 -13.708657 0.000000 0.000000 0.000000 
69.911270 79.562714 -84.014069 -179.907251 -20.399163 179.952194 -7.470976 3.666870 31.919192 13.794037 5.885115 -66.208350 2.598898 13.031350 39.843017 -4.101920 -2.839902 -2.504643 0.000000 0.000000 0.000000 -0.297799 -1.797471 32.361272 8.546514 -11.156399 -65.548882 1.235671 2.756796 40.903681 4.030662 8.957042 -2.352870 0.000000 0.000000 0.000000 -0.002051 0.352460 49.890089 -2.327290 1.022542 28.872098 -0.530793 -2.409323 5.582627 -0.009084 -0.006220 -0.004259 0.270193 -2.409895 6.406932 -1.239319 0.296901 -22.853091 0.000000 0.000000 0.000000 0.711851 -1.096423 1.812348 12.127587 -16.900782 0.879857 -1.344408 -26.863079 -66.439525 -11.787310 -28.891994 0.416605 0.000000 0.000000 0.000000 -2.888866 0.241935 1.274190 27.633808 28.561017 7.404979 -0.315180 45.422315 -33.452586 -9.912488 48.387034 -14.738221 0.000000 0.000000 0.000000 
69.609230 79.546783 -84.213097 -179.905311 -20.330845 179.902320 -7.499625 4.174642 32.769192 13.796308 5.789075 -66.845449 2.450209 12.949608 39.768763 -3.886576 -2.896848 -2.875137 0.000000 0.000000 0.000000 -0.443355 -1.222532 33.327498 8.710747 -11.182118 -66.222495 1.214752 2.840542 40.919991 3.892699 9.003448 -2.491098 0.000000 0.000000 0.000000 0.212714 0.672576 51.058878 -2.233371 1.245110 29.166004 -0.791085 -2.759006 5.161927 0.006520 0.033029 -0.017370 -0.046523 -2.898330 5.931815 -0.517030 -0.088501 -22.503896 0.000000 0.000000 0.000000 0.352160 -1.579169 1.182917 12.076942 -15.784159 0.662196 0.161593 -29.302246 -68.087519 -13.757983 -30.416246 -0.330074 0.000000 0.000000 0.000000 -3.273872 -0.194211 0.756248 29.159874 28.957034 7.743760 -1.349825 45.572849 -32.031917 -10.647681 48.349403 -15.715234 0.000000 0.000000 0.000000 
